<svg xmlns="http://www.w3.org/2000/svg" viewBox="0 0 410 404" fill="none">
  <path d="M399.641 59.525L215.643 388.545C211.85 395.332 202.157 395.362 198.32 388.6L10.624 59.577C6.437 52.235 12.734 43.172 20.976 44.761L205.66 80.314C206.851 80.543 208.074 80.541 209.264 80.309L389.24 44.815C397.456 43.195 403.777 52.187 399.641 59.525Z" fill="#41D1FF"/>
  <path d="M292.965 1.574L156.942 28.263C154.705 28.702 152.845 30.272 152.025 32.398L68.228 249.182C66.214 254.392 70.99 259.787 76.445 258.399L114.292 248.769C119.613 247.414 124.407 252.373 122.868 257.644L111.62 296.199C110.107 301.382 114.747 306.272 119.999 305.055L143.374 299.64C148.648 298.418 153.309 303.347 151.756 308.543L133.88 368.286C131.642 375.769 141.598 379.849 145.068 372.845L147.387 368.165L258.284 146.73C260.141 143.023 256.935 138.84 252.836 139.66L213.827 147.462C208.634 148.501 204.216 143.663 205.659 138.57L231.122 48.653C232.565 43.557 228.142 38.718 222.947 39.764L193.431 45.707C188.233 46.753 183.809 41.909 185.258 36.813L201.902 -21.21C203.372 -26.33 196.948 -30.634 192.523 -27.646L292.965 1.574Z" fill="#BD34FE"/>
</svg>
